<?xml version="1.0" standalone="no"?>
<!DOCTYPE svg PUBLIC "-//W3C//DTD SVG 20010904//EN"
 "http://www.w3.org/TR/2001/REC-SVG-20010904/DTD/svg10.dtd">
<svg version="1.0" xmlns="http://www.w3.org/2000/svg"
 width="450.000000pt" height="450.000000pt" viewBox="0 0 450.000000 450.000000"
 preserveAspectRatio="xMidYMid meet">

<g transform="translate(0.000000,450.000000) scale(0.100000,-0.100000)"
fill="#000000" stroke="none">
<path d="M1915 3445 c-71 -7 -181 -20 -243 -30 -97 -15 -112 -20 -106 -34 3
-9 9 -24 11 -34 3 -10 12 -16 22 -13 39 12 298 46 426 57 169 14 461 7 632
-16 121 -16 123 -16 152 4 16 12 34 21 40 21 6 0 11 4 11 8 0 9 -138 28 -310
42 -153 13 -474 10 -635 -5z"/>
<path d="M1297 3433 c-155 -53 -234 -240 -154 -362 12 -19 31 -49 42 -66 11
-18 31 -48 44 -69 21 -34 51 -58 76 -62 33 -5 54 -19 68 -47 l15 -32 -4 43
c-2 23 -6 60 -8 82 -2 22 -1 40 3 40 12 0 103 -61 151 -101 25 -21 71 -47 101
-58 31 -10 71 -27 90 -36 37 -19 419 -392 419 -409 0 -6 -182 -193 -405 -416
l-405 -405 0 -44 c0 -36 2 -41 14 -32 8 6 19 31 25 54 21 86 106 166 176 167
13 0 132 112 330 310 170 171 314 310 320 310 6 0 154 -144 330 -320 176 -176
323 -320 327 -320 4 0 19 5 34 10 28 11 25 14 -304 343 -183 183 -332 337
-332 343 0 5 87 96 193 201 194 192 239 227 333 252 23 6 70 34 105 62 83 66
141 95 241 120 99 25 121 39 148 93 54 112 -9 270 -133 333 -89 44 -197 33
-251 -26 -11 -12 -24 -21 -29 -21 -5 0 -34 -16 -63 -35 -51 -34 -81 -70 -76
-89 2 -4 -3 -15 -10 -24 -29 -35 28 8 77 57 27 28 53 51 58 51 8 0 4 -36 -9
-82 -3 -10 -14 -18 -25 -18 -24 0 -149 -48 -164 -62 -7 -7 -1 -8 15 -3 14 5
53 9 87 10 61 2 62 2 51 -19 -6 -11 -39 -57 -73 -101 -35 -45 -69 -102 -79
-131 -9 -28 -30 -73 -47 -100 -32 -51 -386 -414 -404 -414 -13 0 -365 355
-393 396 -12 17 -34 65 -50 106 -16 41 -51 104 -79 140 -63 82 -92 143 -110
226 -17 81 -39 121 -80 145 -45 26 -127 31 -186 10z m1703 -50 c0 -5 -15 -9
-33 -10 -26 -1 -28 0 -12 7 26 11 45 12 45 3z m-1615 -13 c-3 -5 -10 -10 -16
-10 -5 0 -9 5 -9 10 0 6 7 10 16 10 8 0 12 -4 9 -10z m1660 0 c3 -5 -1 -10 -9
-10 -9 0 -16 5 -16 10 0 6 4 10 9 10 6 0 13 -4 16 -10z m-1585 -30 c0 -5 -7
-10 -15 -10 -8 0 -15 5 -15 10 0 6 7 10 15 10 8 0 15 -4 15 -10z m1515 0 c3
-5 -1 -10 -9 -10 -9 0 -16 5 -16 10 0 6 4 10 9 10 6 0 13 -4 16 -10z m-1675
-10 c0 -5 -2 -10 -4 -10 -3 0 -8 5 -11 10 -3 6 -1 10 4 10 6 0 11 -4 11 -10z
m120 0 c0 -5 -8 -10 -17 -10 -15 0 -16 2 -3 10 19 12 20 12 20 0z m-48 -22
c-6 -6 -15 -8 -19 -4 -4 4 -1 11 7 16 19 12 27 3 12 -12z m1645 16 c-3 -3 -12
-4 -19 -1 -8 3 -5 6 6 6 11 1 17 -2 13 -5z m113 2 c0 -11 -19 -15 -25 -6 -3 5
1 10 9 10 9 0 16 -2 16 -4z m-230 -16 c0 -6 11 -8 26 -4 20 5 25 4 19 -6 -5
-9 -2 -10 13 -6 12 4 24 2 29 -6 4 -7 13 -13 18 -14 23 -3 55 -17 55 -25 0
-13 -18 -11 -26 2 -4 7 -24 9 -51 6 -38 -4 -41 -3 -26 9 17 12 16 13 -4 7 -18
-4 -23 -1 -23 13 0 15 -2 16 -9 5 -8 -12 -12 -12 -25 2 -18 18 -20 27 -6 27 6
0 10 -5 10 -10z m158 -8 c2 -7 -2 -10 -12 -6 -9 3 -16 11 -16 16 0 13 23 5 28
-10z m-1558 -2 c8 -5 11 -12 7 -17 -5 -4 -11 -3 -15 3 -4 6 -14 14 -22 17 -13
5 -13 5 0 6 8 0 22 -3 30 -9z m1655 0 c3 -5 1 -10 -4 -10 -6 0 -11 5 -11 10 0
6 2 10 4 10 3 0 8 -4 11 -10z m-1815 -11 c0 -5 -9 -9 -21 -9 -11 0 -18 -4 -14
-9 3 -5 1 -12 -5 -16 -11 -7 -13 5 -5 27 6 16 45 22 45 7z m175 -30 c7 -7 3
-8 -10 -4 -20 7 -20 6 -1 -9 25 -20 21 -20 -45 2 -30 11 -60 17 -66 15 -7 -3
-13 0 -13 6 0 6 9 11 19 11 11 0 23 4 26 10 6 10 71 -12 90 -31z m1599 6 c14
-13 26 -31 26 -40 0 -9 4 -14 8 -11 5 3 13 -13 19 -35 5 -21 6 -39 2 -39 -5 0
-9 9 -9 20 0 11 -3 20 -8 20 -4 0 -14 15 -21 33 -17 36 -35 57 -50 57 -6 0
-11 5 -11 10 0 17 16 11 44 -15z m-1874 5 c0 -5 -4 -10 -10 -10 -5 0 -10 5
-10 10 0 6 5 10 10 10 6 0 10 -4 10 -10z m1520 5 c0 -2 -10 -9 -22 -15 -22
-11 -22 -10 -4 4 21 17 26 19 26 11z m170 -19 c0 -18 -37 -27 -44 -11 -5 14 7
23 32 24 6 1 12 -5 12 -13z m250 4 c0 -5 -2 -10 -4 -10 -3 0 -8 5 -11 10 -3 6
-1 10 4 10 6 0 11 -4 11 -10z m-1911 -39 c-8 -17 -18 -31 -22 -31 -5 0 -7 3
-5 8 23 47 32 61 36 58 2 -3 -2 -19 -9 -35z m98 33 c-3 -3 -12 -4 -19 -1 -8 3
-5 6 6 6 11 1 17 -2 13 -5z m-27 -18 c0 -3 -4 -8 -10 -11 -5 -3 -10 -1 -10 4
0 6 5 11 10 11 6 0 10 -2 10 -4z m1740 -6 c0 -5 -5 -10 -11 -10 -5 0 -7 5 -4
10 3 6 8 10 11 10 2 0 4 -4 4 -10z m-1683 -6 c-3 -3 -12 -4 -19 -1 -8 3 -5 6
6 6 11 1 17 -2 13 -5z m86 -16 c10 -5 17 -12 14 -15 -8 -7 -87 19 -87 29 0 9
44 1 73 -14z m1542 11 c4 -5 -3 -9 -14 -9 -12 0 -21 -4 -21 -10 0 -6 9 -6 26
1 23 8 29 6 43 -13 36 -52 -15 -159 -101 -216 -30 -19 -48 -26 -44 -17 10 27
-14 16 -27 -12 -6 -16 -16 -32 -22 -38 -16 -15 -55 -36 -55 -29 0 8 27 34 36
34 8 0 33 32 34 44 0 5 -8 2 -17 -5 -16 -13 -17 -12 -4 4 8 9 16 15 19 12 3
-3 11 0 18 5 6 6 17 9 24 8 7 -2 20 12 29 29 16 32 38 47 28 19 -4 -9 -1 -13
6 -10 7 2 13 13 13 23 0 11 -6 17 -13 14 -7 -3 -13 0 -13 6 0 6 8 11 18 11 13
0 21 13 30 45 17 64 16 74 -8 68 -11 -3 -22 -9 -25 -13 -3 -5 4 -6 16 -3 17 5
20 2 16 -13 -4 -10 -9 -31 -13 -46 -3 -16 -12 -28 -20 -28 -7 0 -22 -20 -33
-45 -11 -25 -25 -45 -32 -45 -8 0 -8 4 -1 13 5 6 16 31 23 55 8 30 18 42 31
42 10 0 18 4 18 9 0 6 -12 6 -32 0 -36 -10 -46 -6 -30 14 7 8 7 18 2 27 -9 13
-10 13 -10 0 0 -8 -11 -20 -25 -27 -29 -13 -28 -13 -15 21 6 16 6 26 0 26 -5
0 -12 -16 -16 -35 -3 -19 -10 -35 -15 -35 -5 0 -5 7 -2 17 5 12 3 14 -7 8 -8
-5 -1 8 14 27 26 35 69 62 111 70 39 7 55 7 60 -3z m-1719 -26 c-10 -10 -19 5
-10 18 6 11 8 11 12 0 2 -7 1 -15 -2 -18z m64 7 c0 -5 -4 -10 -10 -10 -5 0
-10 5 -10 10 0 6 5 10 10 10 6 0 10 -4 10 -10z m70 -5 c24 -8 51 -13 60 -10
17 5 46 -21 96 -89 21 -30 24 -38 12 -33 -10 3 -18 2 -18 -4 0 -6 -4 -7 -10
-4 -5 3 -10 11 -10 16 0 6 5 7 10 4 6 -3 10 2 10 11 0 10 -3 15 -6 11 -9 -8
-104 42 -101 54 1 6 -17 17 -40 24 -45 14 -47 12 -33 -20 8 -18 9 -18 9 -2 1
14 6 17 24 11 27 -8 23 -4 32 -33 6 -21 5 -23 -14 -18 -11 3 -21 4 -21 2 0 -1
7 -22 15 -45 18 -50 18 -50 6 -50 -5 0 -11 10 -14 22 -4 12 -9 19 -12 16 -4
-3 -1 -16 5 -28 10 -18 9 -24 -1 -31 -8 -5 -15 -4 -17 1 -2 6 -7 8 -11 5 -17
-10 -54 47 -72 110 l-18 67 34 -4 c30 -3 34 -1 29 14 -7 22 1 22 56 3z m1665
5 c3 -5 1 -10 -4 -10 -6 0 -11 5 -11 10 0 6 2 10 4 10 3 0 8 -4 11 -10z
m-1915 -10 c0 -5 -5 -10 -11 -10 -5 0 -7 5 -4 10 3 6 8 10 11 10 2 0 4 -4 4
-10z m2030 -10 c0 -5 -2 -10 -4 -10 -3 0 -8 5 -11 10 -3 6 -1 10 4 10 6 0 11
-4 11 -10z m-1927 -22 c6 -21 2 -36 -7 -27 -10 11 -16 49 -8 49 5 0 12 -10 15
-22z m1829 -16 c-3 -10 -1 -13 6 -8 16 10 15 -6 -5 -56 -21 -54 -18 -52 -40
-39 -17 10 -17 10 2 11 13 0 16 3 8 8 -9 6 -8 21 5 64 9 31 20 52 23 46 4 -6
5 -18 1 -26z m-1882 18 c0 -5 -4 -10 -10 -10 -5 0 -10 5 -10 10 0 6 5 10 10
10 6 0 10 -4 10 -10z m-60 -10 c0 -5 -2 -10 -4 -10 -3 0 -8 5 -11 10 -3 6 -1
10 4 10 6 0 11 -4 11 -10z m91 -58 c-6 -2 -8 -8 -5 -14 4 -6 10 -5 15 3 7 11
9 10 9 -3 0 -9 6 -18 13 -21 7 -2 8 -8 3 -13 -5 -5 -11 -4 -13 4 -3 6 -13 12
-23 12 -23 0 -35 31 -18 45 8 5 13 19 11 30 -1 11 2 7 9 -9 8 -23 8 -31 -1
-34z m-48 23 c-3 -8 -9 -15 -14 -15 -10 0 -12 24 -3 33 11 11 24 -3 17 -18z
m1967 -7 c0 -16 -3 -19 -11 -11 -6 6 -8 16 -5 22 11 17 16 13 16 -11z m-1885
2 c3 -5 1 -10 -4 -10 -6 0 -11 5 -11 10 0 6 2 10 4 10 3 0 8 -4 11 -10z m226
-7 c41 -24 36 -36 -6 -16 -19 9 -35 20 -35 25 0 12 9 10 41 -9z m1378 -7 c-11
-10 -49 -16 -49 -8 0 13 44 31 49 20 1 -5 1 -11 0 -12z m321 4 c0 -5 -2 -10
-4 -10 -3 0 -8 5 -11 10 -3 6 -1 10 4 10 6 0 11 -4 11 -10z m-1746 -7 c4 -5
11 -8 14 -8 15 -1 72 -36 72 -44 0 -5 3 -18 7 -28 3 -10 3 -15 -2 -11 -4 4
-14 0 -22 -10 -10 -13 -13 -14 -11 -2 2 8 7 18 12 21 5 4 6 14 3 22 -6 17 -67
41 -67 26 0 -5 7 -9 15 -9 8 0 15 -4 15 -10 0 -5 -6 -8 -12 -6 -7 1 -10 1 -5
-1 10 -7 9 -23 -3 -23 -9 0 -40 62 -40 81 0 11 14 12 24 2z m1664 -30 c-14
-18 -19 -12 -11 16 4 16 8 19 14 10 4 -7 3 -19 -3 -26z m-1828 17 c0 -5 -4
-10 -10 -10 -5 0 -10 5 -10 10 0 6 5 10 10 10 6 0 10 -4 10 -10z m1530 0 c0
-5 -5 -10 -11 -10 -5 0 -7 5 -4 10 3 6 8 10 11 10 2 0 4 -4 4 -10z m90 2 c0
-13 -24 -39 -42 -45 -10 -4 -18 -2 -18 3 0 6 6 10 14 10 8 0 18 5 22 12 5 8 2
9 -9 5 -10 -3 -17 -2 -17 2 0 10 17 19 38 20 6 1 12 -3 12 -7z m-141 -19 c-3
-18 2 -34 9 -30 4 3 19 -8 34 -23 24 -24 25 -30 12 -40 -12 -11 -13 -10 -8 5
5 13 4 16 -4 11 -8 -5 -10 -1 -5 10 4 12 3 15 -5 10 -7 -4 -12 -2 -12 5 0 10
-3 10 -12 1 -7 -7 -16 -12 -22 -12 -6 0 -5 5 2 12 9 9 7 14 -6 24 -15 12 -15
15 -2 24 18 12 20 12 19 3z m67 -8 c-11 -8 -14 -15 -7 -15 7 0 9 -5 5 -12 -6
-9 -9 -9 -12 0 -2 7 -8 10 -13 6 -5 -3 -9 -2 -9 2 0 9 32 33 45 33 6 0 1 -6
-9 -14z m-1609 -11 c-3 -3 -12 -4 -19 -1 -8 3 -5 6 6 6 11 1 17 -2 13 -5z
m381 -13 c12 -10 22 -23 22 -30 0 -6 5 -11 10 -11 6 0 10 -8 10 -17 0 -14 -7
-10 -28 14 -22 26 -30 30 -46 21 -14 -8 -17 -7 -12 1 4 6 2 11 -3 11 -6 0 -11
5 -11 12 0 9 3 9 12 0 17 -17 33 -15 18 3 -18 21 3 19 28 -4z m-88 -1 c0 -5
-2 -10 -4 -10 -3 0 -8 5 -11 10 -3 6 -1 10 4 10 6 0 11 -4 11 -10z m1228 -25
c0 -14 -5 -28 -11 -32 -6 -4 -8 0 -4 10 5 14 3 15 -13 5 -11 -7 -21 -21 -23
-33 -4 -19 -4 -19 -6 2 -1 19 35 72 50 73 4 0 7 -11 7 -25z m142 20 c0 -8 -52
-26 -58 -20 -3 2 6 9 19 14 28 11 39 13 39 6z m-1614 -35 c15 -6 23 -20 28
-48 3 -22 9 -49 13 -59 3 -10 -24 12 -60 48 -37 37 -67 70 -67 74 0 7 50 -2
86 -15z m179 10 c3 -5 2 -10 -4 -10 -5 0 -13 5 -16 10 -3 6 -2 10 4 10 5 0 13
-4 16 -10z m70 -58 c-2 -3 -13 1 -22 9 -15 11 -15 10 1 -9 17 -19 17 -22 3
-22 -10 0 -17 5 -17 11 0 5 -5 7 -10 4 -13 -8 -9 15 5 31 8 9 14 8 28 -4 9 -8
15 -17 12 -20z m-257 -58 c-4 -3 -12 5 -18 18 -12 22 -12 22 6 6 10 -10 15
-20 12 -24z m279 11 c23 -24 11 -26 -17 -5 -14 11 -19 20 -12 20 7 0 20 -7 29
-15z m143 11 c0 -3 -4 -8 -10 -11 -5 -3 -10 -1 -10 4 0 6 5 11 10 11 6 0 10
-2 10 -4z m-50 -50 c0 -3 -4 -8 -10 -11 -5 -3 -10 -1 -10 4 0 6 5 11 10 11 6
0 10 -2 10 -4z m1085 -6 c3 -5 -1 -10 -9 -10 -9 0 -16 5 -16 10 0 6 4 10 9 10
6 0 13 -4 16 -10z"/>
<path d="M2925 3190 c-7 -12 2 -12 30 0 19 8 19 9 -2 9 -12 1 -25 -3 -28 -9z"/>
<path d="M2957 3173 c-4 -3 -7 -11 -7 -17 0 -6 5 -5 12 2 6 6 9 14 7 17 -3 3
-9 2 -12 -2z"/>
<path d="M3043 3145 c-6 -19 -8 -35 -3 -35 8 0 23 60 17 67 -2 1 -8 -13 -14
-32z"/>
<path d="M2980 3139 c0 -5 5 -7 10 -4 6 3 10 8 10 11 0 2 -4 4 -10 4 -5 0 -10
-5 -10 -11z"/>
<path d="M3022 3075 c-6 -14 -7 -25 -2 -25 9 0 25 39 18 46 -3 2 -10 -7 -16
-21z"/>
<path d="M1346 3157 c3 -10 9 -15 12 -12 3 3 0 11 -7 18 -10 9 -11 8 -5 -6z"/>
<path d="M1384 3118 c7 -24 16 -53 20 -65 12 -37 -4 -26 -20 13 -8 20 -17 34
-20 32 -11 -11 27 -78 45 -78 17 0 17 2 0 53 -10 28 -18 60 -19 70 0 9 -4 17
-10 17 -5 0 -4 -18 4 -42z"/>
<path d="M1500 3156 c0 -3 9 -10 20 -16 11 -6 20 -8 20 -6 0 3 -9 10 -20 16
-11 6 -20 8 -20 6z"/>
<path d="M1440 3140 c0 -5 5 -10 11 -10 5 0 7 5 4 10 -3 6 -8 10 -11 10 -2 0
-4 -4 -4 -10z"/>
<path d="M1350 3120 c0 -5 5 -10 11 -10 5 0 7 5 4 10 -3 6 -8 10 -11 10 -2 0
-4 -4 -4 -10z"/>
<path d="M1550 3121 c0 -5 7 -12 16 -15 14 -5 15 -4 4 9 -14 17 -20 19 -20 6z"/>
<path d="M1420 3080 c0 -5 5 -10 11 -10 5 0 7 5 4 10 -3 6 -8 10 -11 10 -2 0
-4 -4 -4 -10z"/>
<path d="M3294 3294 c3 -9 9 -26 12 -38 4 -18 25 -30 92 -56 323 -121 615
-318 747 -504 101 -143 145 -269 145 -417 0 -366 -298 -687 -850 -914 -85 -35
-127 -59 -163 -92 -47 -44 -54 -45 -89 -15 -15 12 -32 10 -145 -16 -546 -130
-1160 -117 -1701 34 l-93 27 -25 -23 c-13 -13 -24 -27 -24 -30 0 -14 281 -88
435 -115 591 -103 1265 -50 1775 140 525 196 851 489 941 845 18 70 21 102 16
185 -3 55 -13 124 -22 154 -102 337 -436 627 -932 810 -62 22 -116 41 -119 41
-3 0 -3 -7 0 -16z"/>
<path d="M2191 3276 c-32 -18 -50 -53 -51 -99 0 -31 7 -46 34 -73 58 -58 141
-42 172 33 40 95 -65 189 -155 139z m103 -62 c-7 -3 -10 -14 -7 -24 7 -25 -22
-28 -31 -3 -7 18 9 33 34 32 9 0 10 -3 4 -5z"/>
<path d="M980 3216 c-52 -23 -119 -55 -148 -70 -305 -156 -545 -396 -632 -632
-29 -78 -34 -105 -38 -210 -5 -137 4 -192 49 -300 115 -277 422 -538 814 -694
89 -35 94 -36 71 -11 -12 13 -15 27 -11 41 6 18 0 23 -37 38 -275 106 -549
302 -681 488 -56 78 -114 210 -132 299 -42 203 41 436 224 628 116 123 364
286 543 358 66 26 78 35 78 54 0 13 3 30 6 39 9 22 1 20 -106 -28z"/>
<path d="M86 2545 c-9 -26 -7 -32 5 -12 6 10 9 21 6 23 -2 3 -7 -2 -11 -11z"/>
<path d="M3720 2014 c-36 -25 -98 -64 -137 -87 -40 -23 -73 -45 -73 -49 0 -6
158 -298 166 -307 12 -13 324 189 324 209 -1 23 -38 63 -52 56 -7 -3 -51 -33
-98 -66 -85 -59 -85 -59 -102 -39 -10 12 -18 26 -18 33 0 6 38 36 85 65 47 30
85 57 85 60 -1 10 -38 51 -47 51 -4 0 -31 -16 -58 -36 -78 -56 -104 -67 -121
-53 -8 6 -14 17 -13 23 0 6 38 36 85 65 46 30 84 60 84 65 -1 11 -35 56 -42
56 -1 0 -32 -21 -68 -46z"/>
<path d="M717 2018 c-62 -84 -177 -248 -177 -252 0 -7 81 -62 195 -133 l100
-63 22 28 c32 38 29 56 -14 76 -56 26 -133 77 -133 87 0 5 32 56 71 115 39 58
69 107 67 108 -24 20 -93 66 -99 66 -4 0 -19 -15 -32 -32z"/>
<path d="M1125 1773 c-22 -19 -88 -74 -147 -121 -60 -48 -108 -89 -108 -92 0
-8 98 -60 113 -60 8 0 22 9 31 19 17 19 19 18 89 -13 65 -30 72 -36 77 -66 5
-30 11 -35 65 -56 33 -12 63 -20 66 -18 3 2 2 28 -2 58 -4 30 -10 117 -14 193
-7 138 -8 140 -34 150 -14 6 -42 17 -61 26 -35 15 -35 15 -75 -20z m57 -150
c-2 -32 -5 -59 -7 -61 -4 -5 -75 28 -75 35 0 9 72 83 80 83 4 0 5 -26 2 -57z"/>
<path d="M3313 1791 c-96 -36 -145 -81 -145 -137 0 -26 7 -44 26 -63 24 -23
32 -26 89 -22 154 8 162 8 165 -16 6 -40 -80 -69 -112 -38 -20 20 -28 19 -87
-11 -50 -25 -51 -26 -32 -46 32 -36 73 -51 123 -45 68 8 175 62 206 103 52 68
25 155 -51 170 -18 3 -70 -1 -117 -10 -105 -20 -100 -20 -96 6 4 31 49 46 82
29 21 -12 29 -10 70 14 25 15 46 30 46 34 0 5 -9 16 -19 25 -29 26 -88 29
-148 7z"/>
<path d="M2930 1656 c-106 -22 -169 -82 -155 -147 11 -48 55 -69 148 -69 109
0 149 -27 95 -64 -31 -22 -74 -20 -98 4 -18 18 -25 18 -75 8 -65 -13 -71 -29
-24 -74 28 -27 35 -29 107 -28 162 1 277 98 228 192 -22 43 -67 57 -169 54
-72 -2 -88 0 -94 13 -12 34 53 57 81 29 17 -16 21 -16 72 0 30 9 54 20 54 24
0 21 -35 52 -68 62 -20 5 -39 10 -42 9 -3 0 -30 -6 -60 -13z"/>
<path d="M1524 1651 c-78 -20 -136 -100 -137 -191 -1 -94 68 -157 201 -182 52
-10 67 -9 106 6 40 15 86 56 86 75 0 3 -23 17 -51 29 l-50 24 -26 -26 c-57
-57 -154 -6 -137 72 15 72 50 112 98 112 20 0 76 -48 76 -66 0 -20 98 -20 106
0 7 18 -17 65 -48 92 -47 43 -161 71 -224 55z"/>
<path d="M1857 1414 c-14 -98 -25 -179 -24 -180 1 -1 32 -5 68 -9 l66 -7 6 38
c4 22 7 54 7 72 0 29 3 33 22 30 15 -2 33 -21 55 -58 53 -92 51 -90 131 -97
45 -4 72 -2 72 4 0 19 -79 132 -101 144 l-22 11 29 13 c58 25 83 79 59 130
-22 45 -47 56 -154 66 -53 4 -116 11 -141 14 l-46 6 -27 -177z m237 70 c36
-35 4 -59 -76 -55 -29 1 -36 19 -22 55 8 21 77 21 98 0z"/>
<path d="M2425 1568 c-43 -15 -93 -55 -109 -86 -49 -97 -10 -220 81 -258 39
-17 157 -18 204 -3 56 19 96 55 114 104 15 38 16 54 7 101 -22 107 -84 154
-202 153 -36 0 -78 -5 -95 -11z m147 -101 c27 -34 34 -102 14 -132 -32 -49
-94 -58 -131 -20 -21 20 -25 34 -25 83 0 59 11 80 50 95 27 11 75 -3 92 -26z"/>
<path d="M440 1536 c0 -2 8 -10 18 -17 15 -13 16 -12 3 4 -13 16 -21 21 -21
13z"/>
<path d="M3170 1371 c-13 -33 -6 -53 32 -88 l24 -23 28 29 c17 18 26 36 23 45
-5 13 -78 66 -91 66 -2 0 -9 -13 -16 -29z"/>
<path d="M1151 1374 c-11 -8 -26 -24 -32 -36 -9 -17 -7 -24 17 -44 15 -13 30
-24 34 -24 15 0 78 86 68 94 -2 2 -17 8 -35 14 -24 8 -36 7 -52 -4z"/>
<path d="M727 1339 c7 -7 15 -10 18 -7 3 3 -2 9 -12 12 -14 6 -15 5 -6 -5z"/>
<path d="M2133 983 c15 -2 39 -2 55 0 15 2 2 4 -28 4 -30 0 -43 -2 -27 -4z"/>
<path d="M2258 983 c12 -2 32 -2 45 0 12 2 2 4 -23 4 -25 0 -35 -2 -22 -4z"/>
<path d="M2363 983 c9 -2 23 -2 30 0 6 3 -1 5 -18 5 -16 0 -22 -2 -12 -5z"/>
</g>
</svg>
